<svg xmlns="http://www.w3.org/2000/svg" version="1.1" xmlns:xlink="http://www.w3.org/1999/xlink" xmlns:svgjs="http://svgjs.dev/svgjs" width="950" height="225"><svg width="950" height="225" viewBox="0 0 950 225" fill="none" xmlns="http://www.w3.org/2000/svg">
<path d="M75.2206 224.604C51.6329 224.604 33.1528 218.668 19.7802 206.798C6.59341 194.741 0 178.141 0 156.996V82.9881H57.3905V159.5C57.3905 166.919 58.9692 172.391 62.1266 175.915C65.4698 179.439 69.9273 181.201 75.4992 181.201C80.8854 181.201 85.0643 179.439 88.0359 175.915C91.1934 172.391 92.7721 166.919 92.7721 159.5V82.9881H149.048V156.996C149.048 178.326 142.548 194.927 129.547 206.798C116.731 218.668 98.6226 224.604 75.2206 224.604Z" fill="#33363F"></path>
<path d="M248.401 72.9036C271.989 72.9036 290.469 79.0102 303.842 91.2235C317.028 103.628 323.622 120.707 323.622 142.462L323.622 218.604L266.231 218.604L266.231 139.886C266.231 132.252 264.653 126.623 261.495 122.997C258.152 119.371 253.695 117.558 248.123 117.558C242.736 117.558 238.558 119.371 235.586 122.997C232.428 126.623 230.85 132.252 230.85 139.886L230.85 218.604L174.574 218.604L174.574 142.462C174.574 120.516 181.074 103.437 194.075 91.2235C206.891 79.0102 224.999 72.9036 248.401 72.9036Z" fill="#33363F"></path>
<path d="M874.564 72.9036C898.152 72.9036 916.632 79.0102 930.004 91.2235C943.191 103.628 949.785 120.707 949.785 142.462L949.785 218.604L892.394 218.604L892.394 139.886C892.394 132.252 890.815 126.623 887.658 122.997C884.315 119.371 879.857 117.558 874.285 117.558C868.899 117.558 864.72 119.371 861.749 122.997C858.591 126.623 857.012 132.252 857.012 139.886L857.012 218.604L800.736 218.604L800.736 142.462C800.736 120.516 807.237 103.437 820.238 91.2235C833.053 79.0102 851.162 72.9036 874.564 72.9036Z" fill="#246AD2"></path>
<path d="M486.227 218.882L437.538 79.4924H499.819L524.025 162.959L547.674 79.4924H608.348L561.328 218.882H486.227Z" fill="#33363F"></path>
<path d="M698.691 224.603C683.077 224.603 669.3 221.384 657.36 214.946C645.42 208.508 636.052 199.632 629.255 188.316C622.643 176.806 619.336 163.637 619.336 148.81C619.336 133.593 622.734 120.424 629.531 109.304C636.511 97.9887 645.971 89.2096 657.911 82.9667C669.851 76.7237 683.536 73.6023 698.966 73.6023C714.764 73.6023 728.632 76.8213 740.572 83.2593C752.512 89.5022 761.789 98.2814 768.402 109.597C775.014 120.717 778.321 133.788 778.321 148.81C778.321 163.832 774.923 177.098 768.126 188.609C761.513 199.924 752.237 208.801 740.297 215.239C728.357 221.482 714.488 224.603 698.691 224.603ZM699.242 180.708C706.773 180.708 712.927 177.781 717.703 171.929C722.662 165.881 725.142 158.175 725.142 148.81C725.142 139.446 722.754 131.837 717.978 125.984C713.202 119.937 707.141 116.913 699.793 116.913C691.894 116.913 685.465 119.937 680.505 125.984C675.729 131.837 673.341 139.446 673.341 148.81C673.341 158.175 675.729 165.881 680.505 171.929C685.465 177.781 691.71 180.708 699.242 180.708Z" fill="#246AD2"></path>
<rect x="353.432" y="79.4924" width="59.6193" height="139.112" fill="#33363F"></rect>
<circle cx="383.241" cy="29.8096" r="29.8096" fill="#33363F"></circle>
</svg><style>@media (prefers-color-scheme: light) { :root { filter: none; } }
@media (prefers-color-scheme: dark) { :root { filter: none; } }
</style></svg>