<svg width="187" height="44" viewBox="0 0 187 44" fill="none" xmlns="http://www.w3.org/2000/svg">
<g id="Group 244">
<path id="univ-on" d="M14.7358 44C10.1149 44 6.49465 42.8372 3.87496 40.5117C1.29165 38.1499 0 34.8978 0 30.7555V16.2574H11.2428V31.246C11.2428 32.6995 11.5521 33.7714 12.1706 34.4618C12.8256 35.1522 13.6988 35.4974 14.7903 35.4974C15.8455 35.4974 16.6641 35.1522 17.2463 34.4618C17.8648 33.7714 18.1741 32.6995 18.1741 31.246V16.2574H29.1986V30.7555C29.1986 34.9342 27.9252 38.1862 25.3782 40.5117C22.8677 42.8372 19.3202 44 14.7358 44Z" fill="#33363F"/>
<path id="univ-on_2" d="M48.6619 14.2818C53.2828 14.2818 56.9031 15.4781 59.5227 17.8707C62.1061 20.3007 63.3977 23.6466 63.3977 27.9084L63.3977 42.8246L52.1549 42.8246L52.1549 27.4037C52.1549 25.9083 51.8456 24.8055 51.2271 24.0952C50.5721 23.3849 49.6989 23.0297 48.6074 23.0297C47.5522 23.0297 46.7336 23.3849 46.1514 24.0952C45.5329 24.8055 45.2236 25.9083 45.2236 27.4037L45.2236 42.8246L34.1991 42.8246L34.1991 27.9084C34.1991 23.6092 35.4725 20.2633 38.0195 17.8707C40.53 15.4781 44.0775 14.2818 48.6619 14.2818Z" fill="#33363F"/>
<path id="univ-on_3" d="M171.328 14.2818C175.948 14.2818 179.569 15.4781 182.188 17.8707C184.772 20.3007 186.063 23.6466 186.063 27.9084L186.063 42.8246L174.82 42.8246L174.82 27.4037C174.82 25.9083 174.511 24.8055 173.893 24.0952C173.238 23.3849 172.365 23.0297 171.273 23.0297C170.218 23.0297 169.399 23.3849 168.817 24.0952C168.198 24.8055 167.889 25.9083 167.889 27.4037L167.889 42.8246L156.865 42.8246L156.865 27.9084C156.865 23.6092 158.138 20.2633 160.685 17.8707C163.196 15.4781 166.743 14.2818 171.328 14.2818Z" fill="#246AD2"/>
<path id="univ-on_4" d="M95.2521 42.8792L85.7139 15.5726H97.9149L102.657 31.9238L107.29 15.5726H119.176L109.965 42.8792H95.2521Z" fill="#33363F"/>
<path id="univ-on_5" d="M136.874 43.9999C133.815 43.9999 131.116 43.3693 128.777 42.1081C126.438 40.8469 124.603 39.1079 123.271 36.8913C121.976 34.6364 121.328 32.0566 121.328 29.152C121.328 26.1709 121.994 23.5912 123.325 21.4127C124.693 19.1961 126.546 17.4762 128.885 16.2532C131.224 15.0302 133.905 14.4187 136.928 14.4187C140.023 14.4187 142.739 15.0493 145.079 16.3106C147.418 17.5335 149.235 19.2534 150.53 21.4701C151.826 23.6485 152.473 26.2092 152.473 29.152C152.473 32.0948 151.808 34.6937 150.476 36.9486C149.181 39.1653 147.364 40.9042 145.025 42.1654C142.685 43.3884 139.969 43.9999 136.874 43.9999ZM136.982 35.4007C138.457 35.4007 139.663 34.8275 140.598 33.6809C141.57 32.4961 142.056 30.9865 142.056 29.152C142.056 27.3175 141.588 25.827 140.652 24.6804C139.717 23.4956 138.529 22.9033 137.09 22.9033C135.542 22.9033 134.283 23.4956 133.311 24.6804C132.376 25.827 131.908 27.3175 131.908 29.152C131.908 30.9865 132.376 32.4961 133.311 33.6809C134.283 34.8275 135.506 35.4007 136.982 35.4007Z" fill="#246AD2"/>
<rect id="Rectangle 5447" x="69.2374" y="15.5726" width="11.6795" height="27.252" fill="#33363F"/>
<ellipse id="Ellipse 159" cx="75.0771" cy="5.83972" rx="5.83973" ry="5.83972" fill="#33363F"/>
</g>
</svg>
