<svg width="20" height="20" viewBox="0 0 20 20" fill="none" xmlns="http://www.w3.org/2000/svg">
<g id="Info_fill">
<path id="Subtract" fill-rule="evenodd" clip-rule="evenodd" d="M2.5 10C2.5 5.85786 5.85787 2.5 10 2.5C14.1421 2.5 17.5 5.85786 17.5 10C17.5 14.1421 14.1421 17.5 10 17.5C5.85786 17.5 2.5 14.1421 2.5 10ZM9.16634 13.8667C9.16634 13.4064 9.53944 13.0333 9.99967 13.0333C10.4599 13.0333 10.833 13.4064 10.833 13.8667C10.833 14.3269 10.4599 14.7 9.99967 14.7C9.53944 14.7 9.16634 14.3269 9.16634 13.8667ZM9 10.5333C9 11.0856 9.44772 11.5333 10 11.5333C10.5523 11.5333 11 11.0856 11 10.5333L11 6.36667C11 5.81438 10.5523 5.36667 10 5.36667C9.44772 5.36667 9 5.81438 9 6.36667L9 10.5333Z" fill="#D0D0D0"/>
</g>
</svg>
