<svg width="25" height="24" viewBox="0 0 25 24" fill="none" xmlns="http://www.w3.org/2000/svg">
<path id="Subtract" fill-rule="evenodd" clip-rule="evenodd" d="M24.5 12C24.5 18.6274 19.1274 24 12.5 24C5.87258 24 0.5 18.6274 0.5 12C0.5 5.37258 5.87258 0 12.5 0C19.1274 0 24.5 5.37258 24.5 12ZM12.5 19.6667C11.9477 19.6667 11.5 19.219 11.5 18.6667V13H5.83333C5.28105 13 4.83333 12.5523 4.83333 12C4.83333 11.4477 5.28105 11 5.83333 11H11.5V5.33333C11.5 4.78105 11.9477 4.33333 12.5 4.33333C13.0523 4.33333 13.5 4.78105 13.5 5.33333V11H19.1667C19.719 11 20.1667 11.4477 20.1667 12C20.1667 12.5523 19.719 13 19.1667 13H13.5V18.6667C13.5 19.219 13.0523 19.6667 12.5 19.6667Z" fill="currentColor"/>
</svg>
